<svg width="48" height="48" viewBox="0 0 48 48" fill="none" xmlns="http://www.w3.org/2000/svg">
<path d="M0 4C0 1.79086 1.79086 0 4 0H44C46.2091 0 48 1.79086 48 4V44C48 46.2091 46.2091 48 44 48H4C1.79086 48 0 46.2091 0 44V4Z" fill="white"/>
<rect x="0.5" y="0.5" width="47" height="47" rx="3.5" fill="white" stroke="#E6E6E6"/>
<path fill-rule="evenodd" clip-rule="evenodd" d="M36 35.0767H30.6955V27.2885C30.6955 25.2504 29.8664 23.8585 28.0413 23.8585C26.646 23.8585 25.8698 24.7979 25.5087 25.7029C25.3729 26.0274 25.3942 26.4799 25.3942 26.9324V35.0767H20.1393C20.1393 35.0767 20.2069 21.2809 20.1393 20.027H25.3942V22.3892C25.7051 21.3563 27.384 19.8825 30.0633 19.8825C33.3878 19.8825 36 22.0469 36 26.7086V35.0767ZM14.8255 18.1445H14.7911C13.098 18.1445 12 16.9942 12 15.5359C12 14.0494 13.1302 12.9229 14.8576 12.9229C16.5835 12.9229 17.6449 14.0466 17.6782 15.5315C17.6782 16.9897 16.5835 18.1445 14.8255 18.1445ZM12.6054 20.027H17.2833V35.0767H12.6054V20.027Z" fill="#A81D1D"/>
</svg>
