<svg width="48" height="48" viewBox="0 0 48 48" fill="none" xmlns="http://www.w3.org/2000/svg">
<path d="M0 4C0 1.79086 1.79086 0 4 0H44C46.2091 0 48 1.79086 48 4V44C48 46.2091 46.2091 48 44 48H4C1.79086 48 0 46.2091 0 44V4Z" fill="white"/>
<rect x="0.5" y="0.5" width="47" height="47" rx="3.5" fill="white" stroke="#E6E6E6"/>
<path fill-rule="evenodd" clip-rule="evenodd" d="M33.165 17.0609C34.1951 16.4244 34.9652 15.4166 35.3294 14.2284C34.3652 14.8239 33.3102 15.2434 32.2102 15.4685C30.8297 13.9326 28.6878 13.4316 26.8091 14.2053C24.9304 14.9789 23.6969 16.8699 23.6986 18.9737C23.6948 19.366 23.733 19.7575 23.8126 20.1409C19.8537 19.9388 16.1651 17.9897 13.6709 14.7819C12.3567 17.1214 13.0187 20.1221 15.1818 21.6297C14.4033 21.6078 13.6412 21.3914 12.9599 20.9986V21.0545C12.9625 23.4933 14.6084 25.5954 16.902 26.0892C16.481 26.2048 16.0472 26.2615 15.6119 26.258C15.2993 26.2637 14.9871 26.2344 14.6805 26.1704C15.3322 28.2543 17.1742 29.6842 19.2781 29.7395C17.5365 31.1578 15.3886 31.9272 13.1777 31.9249C12.7841 31.9276 12.3907 31.904 12 31.8543C14.2498 33.364 16.8714 34.1626 19.5479 34.1536C28.6017 34.1536 33.5519 26.3438 33.5519 19.5741C33.5519 19.3475 33.5444 19.129 33.5339 18.9118C34.5044 18.1885 35.3401 17.2871 36 16.2516C35.0972 16.6617 34.1424 16.9342 33.165 17.0609Z" fill="#A81D1D"/>
</svg>
