<svg width="48" height="48" viewBox="0 0 48 48" fill="none" xmlns="http://www.w3.org/2000/svg">
<path d="M0 4C0 1.79086 1.79086 0 4 0H44C46.2091 0 48 1.79086 48 4V44C48 46.2091 46.2091 48 44 48H4C1.79086 48 0 46.2091 0 44V4Z" fill="white"/>
<rect x="0.5" y="0.5" width="47" height="47" rx="3.5" fill="white" stroke="#E6E6E6"/>
<path fill-rule="evenodd" clip-rule="evenodd" d="M23.9968 12.9229H24.0024C28.7379 12.9233 32.9492 15.9351 34.4809 20.417C36.0125 24.8989 34.5257 29.8589 30.7812 32.7585C27.0368 35.658 21.8635 35.8555 17.909 33.2498L13.6514 34.611L15.0318 30.4954C12.5884 27.1258 12.2409 22.6702 14.1325 18.9624C16.0241 15.2546 19.8351 12.9213 23.9968 12.9229ZM27.5047 29.4713C28.2195 29.3054 29.1143 28.7379 29.3399 28.0536C29.5655 27.3688 29.5667 26.7829 29.5 26.6587C29.4463 26.5586 29.3184 26.4927 29.127 26.394C29.0809 26.3702 29.031 26.3445 28.9776 26.316C28.7028 26.1691 27.3668 25.4596 27.1142 25.3654C26.8715 25.242 26.5813 25.3365 26.4433 25.5839C26.2172 25.9444 25.9734 26.2917 25.7127 26.6242C25.5354 26.8039 25.2736 26.8483 25.0533 26.736C24.2436 26.4045 23.4995 25.9116 22.8603 25.2832C22.2651 24.6913 21.7539 24.0089 21.343 23.2578C21.1869 22.9682 21.3215 22.7983 21.446 22.6413C21.4483 22.6384 21.4506 22.6354 21.4529 22.6325C21.5331 22.5259 21.611 22.4371 21.6893 22.3478C21.7455 22.2837 21.802 22.2193 21.8597 22.1478C21.9833 22.013 22.0856 21.8573 22.1624 21.687C22.2314 21.5095 22.2166 21.3072 22.1227 21.1434C22.0769 21.0398 21.7941 20.3029 21.5512 19.6697C21.4469 19.3979 21.3499 19.1452 21.2822 18.9699C21.101 18.5042 20.9631 18.4866 20.6884 18.474C20.6779 18.4734 20.6674 18.4729 20.6567 18.4723C20.5714 18.4678 20.4778 18.4628 20.375 18.4628C20.0249 18.446 19.6824 18.5751 19.4188 18.8232C18.7867 19.4518 18.4381 20.3431 18.4627 21.268C18.4627 22.6781 19.3982 24.0426 19.5634 24.2835C19.567 24.2889 19.5703 24.2937 19.5732 24.2979C19.5835 24.3124 19.6028 24.3424 19.6308 24.386C19.9797 24.9289 21.6852 27.5824 24.2292 28.7153C26.3778 29.6722 27.016 29.5831 27.5047 29.4713Z" fill="#A81D1D"/>
</svg>
